<?xml version="1.0" encoding="UTF-8"?>
<svg id="Camada_2" data-name="Camada 2" xmlns="http://www.w3.org/2000/svg" xmlns:xlink="http://www.w3.org/1999/xlink" viewBox="0 0 385.88 261.33">
  <defs>
    <style>
      .cls-1 {
        fill: url(#Degradado_sin_nombre_9-12);
      }

      .cls-2 {
        fill: url(#Degradado_sin_nombre_9-13);
      }

      .cls-3 {
        fill: url(#Degradado_sin_nombre_9-16);
      }

      .cls-4 {
        fill: url(#Degradado_sin_nombre_9-2);
      }

      .cls-5 {
        fill: url(#Degradado_sin_nombre_9-10);
      }

      .cls-6 {
        fill: url(#Degradado_sin_nombre_9-6);
      }

      .cls-7 {
        letter-spacing: 0em;
      }

      .cls-8 {
        fill: url(#Degradado_sin_nombre_9-4);
      }

      .cls-9 {
        fill: url(#Degradado_sin_nombre_9-3);
      }

      .cls-10 {
        fill: url(#Degradado_sin_nombre_9);
      }

      .cls-11 {
        fill: url(#Degradado_sin_nombre_9-15);
      }

      .cls-12 {
        fill: url(#Degradado_sin_nombre_9-8);
      }

      .cls-13 {
        fill: url(#Degradado_sin_nombre_9-9);
      }

      .cls-14 {
        fill: url(#Degradado_sin_nombre_9-17);
      }

      .cls-15, .cls-16 {
        fill: #b80c00;
      }

      .cls-17 {
        fill: url(#Degradado_sin_nombre_9-14);
      }

      .cls-18 {
        fill: url(#Degradado_sin_nombre_9-7);
      }

      .cls-19 {
        fill: url(#Degradado_sin_nombre_9-11);
      }

      .cls-20 {
        fill: url(#Degradado_sin_nombre_9-5);
      }

      .cls-16 {
        font-family: Kanit-ExtraBoldItalic, Kanit;
        font-size: 44.44px;
        font-style: italic;
        font-weight: 700;
      }
    </style>
    <linearGradient id="Degradado_sin_nombre_9" data-name="Degradado sin nombre 9" x1="137.51" y1="85.4" x2="137.51" y2="149.35" gradientUnits="userSpaceOnUse">
      <stop offset="0" stop-color="#f4f4f4"/>
      <stop offset=".23" stop-color="#dbdbdb"/>
      <stop offset=".72" stop-color="#9e9e9e"/>
      <stop offset="1" stop-color="#797979"/>
    </linearGradient>
    <linearGradient id="Degradado_sin_nombre_9-2" data-name="Degradado sin nombre 9" x1="168.47" y1="85.4" x2="168.47" y2="149.35" xlink:href="#Degradado_sin_nombre_9"/>
    <linearGradient id="Degradado_sin_nombre_9-3" data-name="Degradado sin nombre 9" x1="180.25" y1="85.4" x2="180.25" y2="149.35" xlink:href="#Degradado_sin_nombre_9"/>
    <linearGradient id="Degradado_sin_nombre_9-4" data-name="Degradado sin nombre 9" x1="212.46" y1="85.4" x2="212.46" y2="149.35" xlink:href="#Degradado_sin_nombre_9"/>
    <linearGradient id="Degradado_sin_nombre_9-5" data-name="Degradado sin nombre 9" x1="171.83" y1="85.4" x2="171.83" y2="149.35" xlink:href="#Degradado_sin_nombre_9"/>
    <linearGradient id="Degradado_sin_nombre_9-6" data-name="Degradado sin nombre 9" x1="216.53" y1="85.4" x2="216.53" y2="149.35" xlink:href="#Degradado_sin_nombre_9"/>
    <linearGradient id="Degradado_sin_nombre_9-7" data-name="Degradado sin nombre 9" x1="45.54" y1="85.4" x2="45.54" y2="149.35" xlink:href="#Degradado_sin_nombre_9"/>
    <linearGradient id="Degradado_sin_nombre_9-8" data-name="Degradado sin nombre 9" x1="52.84" y1="85.4" x2="52.84" y2="149.35" xlink:href="#Degradado_sin_nombre_9"/>
    <linearGradient id="Degradado_sin_nombre_9-9" data-name="Degradado sin nombre 9" x1="126.56" y1="85.4" x2="126.56" y2="149.35" xlink:href="#Degradado_sin_nombre_9"/>
    <linearGradient id="Degradado_sin_nombre_9-10" data-name="Degradado sin nombre 9" x1="265.52" y1="85.4" x2="265.52" y2="149.35" xlink:href="#Degradado_sin_nombre_9"/>
    <linearGradient id="Degradado_sin_nombre_9-11" data-name="Degradado sin nombre 9" x1="175.88" y1="282.72" x2="175.88" y2="201.82" xlink:href="#Degradado_sin_nombre_9"/>
    <linearGradient id="Degradado_sin_nombre_9-12" data-name="Degradado sin nombre 9" x1="124.33" y1="140.1" x2="124.33" y2="174.55" xlink:href="#Degradado_sin_nombre_9"/>
    <linearGradient id="Degradado_sin_nombre_9-13" data-name="Degradado sin nombre 9" x1="124.33" y1="140.1" x2="124.33" y2="174.55" xlink:href="#Degradado_sin_nombre_9"/>
    <linearGradient id="Degradado_sin_nombre_9-14" data-name="Degradado sin nombre 9" x1="124.33" y1="140.1" x2="124.33" y2="174.55" xlink:href="#Degradado_sin_nombre_9"/>
    <linearGradient id="Degradado_sin_nombre_9-15" data-name="Degradado sin nombre 9" x1="124.33" y1="140.1" x2="124.33" y2="174.55" xlink:href="#Degradado_sin_nombre_9"/>
    <linearGradient id="Degradado_sin_nombre_9-16" data-name="Degradado sin nombre 9" x1="124.33" y1="140.1" x2="124.33" y2="174.55" xlink:href="#Degradado_sin_nombre_9"/>
    <linearGradient id="Degradado_sin_nombre_9-17" data-name="Degradado sin nombre 9" x1="124.33" y1="140.1" x2="124.33" y2="174.55" xlink:href="#Degradado_sin_nombre_9"/>
  </defs>
  <g id="TEXTS">
    <g>
      <g>
        <path class="cls-10" d="M138.7,98.92c-3.71.11-8.95,6.16-8.95,6.16,8.15.46,15.51-1.37,15.51-1.37-1.54-3.88-2.85-4.9-6.56-4.79Z"/>
        <path class="cls-4" d="M199.55,106.9c.68-.17.68-1.08.68-1.08l-54.74-.67s-.86,2.32-2.17,2.66-6.61.34-6.61.34c0,0-.03.57.54.66.57.09,2.14-.29,2.45,0,.31.29.03,1.17.6,1.25.57.09,51.26-.83,51.26-.83v-1.03s-28.85-.41-29.54-.6c-.68-.2-1.6-.73-1.6-.73,0,0,38.44.19,39.12.02Z"/>
        <path class="cls-9" d="M201.92,88.76c2.29.47,6.93,1.14,7.17,1.47.64.9,1.49,2.17,1.43,2.6-.05.35-.37.53-.67.63-.16-.35-.34-.79-.63-1.22-.6-.9.51-1.28-.6-1.41s-4.11-1.11-4.32-.6c-.21.51-.34,1.33-.81,1.54-.17.08-.67.4-1.23.79-12.6-1.41-35.47-2.88-37.49-2.7-2.51.23-22.98,8.5-22.98,8.5,5.07,1.25,4.33,6.04,4.33,6.04,0,0,.64.01,1.76.03.08-.47.2-1.43-.05-2-.34-.77,40.98-2.71,42.22-2.15,1.05.47.66,3.16-.03,4.27,2.85-.09,4.97-.23,5.94-.42.39-.08.84-.21,1.33-.39.28-1.11.62-3.01.62-3.76,0-.95,6.21-1.06,7.22-.22,6.53-3.84,13.57-8.77,13.57-8.77-2.97-.97-17.78-2.76-17.78-2.76,0,0-.48.22.99.52Z"/>
        <path class="cls-8" d="M215.58,93.77l-9.62,6.59h9.92s3.16-5.69,3.08-6.33c-.09-.64-3.38-.26-3.38-.26Z"/>
        <path class="cls-20" d="M134.14,122.47c-.37,1.12,62.98-2.93,74.6-4.47.11-1.61.5-3.66.78-4.97-3.89.52-36.61,3.64-46.47,4.81-10.09,1.2-28.51,3.42-28.91,4.62Z"/>
        <path class="cls-6" d="M210.39,112.92c-.51,1.33-.64,3.35-.65,4.94.25-.04.44-.08.58-.12,4.73-1.25,12.26-4.16,12.77-4.68.51-.51,0-1.31,0-1.31-1.27.21-9.5.77-12.71,1.17Z"/>
        <path class="cls-18" d="M38.29,129.48c.06-.68,17.85-11.52,18.7-13.29,0,0-22.01,13-22.18,13.8-.17.8-.91,4.28-.68,4.16.23-.11,9.07-4.39,9.29-4.79.23-.4.23-1.94.23-1.94,0,0-5.42,2.74-5.36,2.05Z"/>
        <path class="cls-12" d="M60.16,120.27c-1.25-.23-9.27,4.82-9.72,4.91-.46.09,9.41-5.9,9.52-6.87.11-.97-2.31-.34-2.31-.34-1.01.58-8.87,5.87-10.29,7.21-1.43,1.34-3.02,4.36-3.02,4.36,0,0,9.29-2.79,11.01-3.48,1.71-.68,6-5.52,6-5.72s.07.16-1.18-.07Z"/>
        <path class="cls-13" d="M115.26,105.81c11.71-5.65,38.72-15.28,48.12-18.58,2.08-.73,31.81,1.03,31.81,1.03,0,0,1.66-.41-2.93-.9-8.55-.92-26.27-2.12-28.63-1.55-1.79.44-29.59,9.46-38.55,12.51-6.53,2.22-15.69,5.8-20.18,7.57-10.31.18-21.18.68-26.64,1.95-12.15,2.82-20.61,9.24-20.61,9.24,0,0,7.95-1.74,6.16,3.19,9.81-5.87,20.35-9.6,33.1-6.87,0,0,20.96-4.53,31.56-3.16,0,0,3.25-1.54.86-4.28,0,0-6.02-.15-14.07-.15ZM122.23,108.84c-5.13-.74-23.95,3.08-23.95,3.08-1.05-.99-6.1-1.85-6.1-1.85,6.56-3.05,29.71-2.46,29.71-2.46.78.45.34,1.23.34,1.23Z"/>
        <path class="cls-5" d="M292.09,102.54c-27.2-2.39-51.32,3.25-51.32,3.25,0,0,6.72-3.4,17.74-4.9-1.37-1.34-4.74-2.76-4.74-2.76v-.34c4.88,0,8.8,1.78,10.27,2.55,3.54-.22,7.41-.22,11.54.14l-.6-1.8s-34.04-7.95-53.54-8.47l-.86,1.67s7.01.63,12.7,1.77c0,0-11.2-.53-11.68-.53s-.73,1.11-.73,1.11l-2.18,3.85s1.07-1.08,2.18-1.18c1.11-.1,6.63.71,7.57,1.95.94,1.24-1.37,4.82-4.32,5.68-2.95.86-10.01.39-10.01.39l-.77,2.27s1.07-1.75,1.8-1.75,8.08,1.11,10.56-.68c2.48-1.8,3.98-4.04,3.98-4.04,0,0,1.54.06,1.88,1,.34.94-2.31,4.4-2.31,4.4,0,0,4.66-2.69,5.43-5.09s-9.11-5.77-10.67-5.82c-1.56-.04-2.07-.98-2.07-.98,0,0,11.76.23,14.11,2.77s-.51,6.26-3.16,8.48c-2.65,2.22-8.21,5.26-8.21,5.26,0,0,14.54-1.54,21.64,0,7.1,1.54,15.74,3.93,20.01,4.02,13.36-7.43,27.15-6.1,41.31,2.57,0,0-.77-4.45-3.25-6.59,0,0,7.01-4.36,11.97-3.42l1.28-1.54s1.63-.86-25.57-3.25Z"/>
      </g>
      <g>
        <path class="cls-15" d="M76.97,102.28c3.46-.8,8.8-1.38,16.17-1.74L175.88,17.79l69.24,69.24c8.14,1.29,16.03,2.84,21.84,4.05L175.88,0l-103.55,103.55c1.48-.47,3.03-.9,4.63-1.27Z"/>
        <polygon class="cls-19" points="220.2 199.24 237.98 199.24 175.88 261.33 113.79 199.24 131.57 199.24 175.88 243.55 220.2 199.24"/>
      </g>
      <g>
        <path class="cls-15" d="M210.8,81.18l-4.88-3.76c-1.43-1.1-3.38-1.25-4.97-.38l-5.39,2.98,3.76-4.88c1.1-1.43,1.25-3.38.38-4.97l-2.98-5.39,4.88,3.76c1.43,1.1,3.38,1.25,4.97.38l5.39-2.98-3.76,4.88c-1.1,1.43-1.25,3.38-.38,4.97l2.98,5.39Z"/>
        <path class="cls-15" d="M124.66,91.41l1.75-4.06c.51-1.19.27-2.57-.62-3.52l-3.03-3.22,4.06,1.75c1.19.51,2.57.27,3.52-.62l3.22-3.03-1.75,4.06c-.51,1.19-.27,2.57.62,3.52l3.03,3.22-4.06-1.75c-1.19-.51-2.57-.27-3.52.62l-3.22,3.03Z"/>
        <path class="cls-15" d="M135.31,73.76l3.89-2.1c1.14-.62,1.81-1.85,1.69-3.15l-.39-4.4,2.1,3.89c.62,1.14,1.85,1.81,3.15,1.69l4.4-.39-3.89,2.1c-1.14.62-1.81,1.85-1.69,3.15l.39,4.4-2.1-3.89c-.62-1.14-1.85-1.81-3.15-1.69l-4.4.39Z"/>
        <path class="cls-15" d="M190.82,64.59l.8-4.95c.23-1.45-.42-2.91-1.66-3.7l-4.23-2.7,4.95.8c1.45.23,2.91-.42,3.7-1.66l2.7-4.23-.8,4.95c-.23,1.45.42,2.91,1.66,3.7l4.23,2.7-4.95-.8c-1.45-.23-2.91.42-3.7,1.66l-2.7,4.23Z"/>
        <path class="cls-15" d="M192.23,72.33l-3.54,1.28c-1.04.38-1.76,1.33-1.83,2.44l-.23,3.76-1.28-3.54c-.38-1.04-1.33-1.76-2.44-1.83l-3.76-.23,3.54-1.28c1.04-.38,1.76-1.33,1.83-2.44l.23-3.76,1.28,3.54c.38,1.04,1.33,1.76,2.44,1.83l3.76.23Z"/>
      </g>
      <g>
        <g>
          <path class="cls-1" d="M0,182.47l9.02-42.69h24.4c3.62,0,6.41.86,8.35,2.58,1.94,1.72,2.92,4,2.92,6.83,0,.4-.02.81-.07,1.23-.04.42-.11.85-.2,1.29-.44,2.17-1.22,4-2.32,5.5-1.1,1.5-2.39,2.7-3.84,3.58,1.28.62,2.29,1.43,3.02,2.42.73.99,1.09,2.29,1.09,3.88,0,.4-.02.81-.07,1.23-.04.42-.11.87-.2,1.36-.84,4.02-2.63,7.16-5.37,9.41-2.74,2.25-6.72,3.38-11.93,3.38H0ZM15.58,172.72h7.29c1.5,0,2.61-.3,3.31-.89s1.22-1.54,1.53-2.82c.04-.18.08-.34.1-.5.02-.15.03-.3.03-.43,0-1.68-1.19-2.52-3.58-2.52h-7.16l-1.52,7.16ZM19.03,156.48h7.03c1.46,0,2.53-.3,3.21-.9.68-.6,1.14-1.45,1.36-2.55.04-.18.08-.34.1-.5.02-.15.03-.32.03-.5,0-1.63-1.15-2.45-3.45-2.45h-6.83l-1.46,6.89Z"/>
          <path class="cls-2" d="M43.42,182.47l9.02-42.69h14.25l-9.02,42.69h-14.25Z"/>
          <path class="cls-17" d="M63.04,182.47l9.02-42.69h13.19l5.5,19.69,13.72-19.69h14.12l-9.02,42.69h-14.25l3.84-18.16-7.62,10.87h-7.42l-2.98-10.87-3.85,18.16h-14.25Z"/>
          <path class="cls-11" d="M114.95,182.47l9.02-42.69h13.19l5.5,19.69,13.72-19.69h14.12l-9.02,42.69h-14.25l3.84-18.16-7.62,10.87h-7.42l-2.98-10.87-3.84,18.16h-14.25Z"/>
          <path class="cls-3" d="M166.85,182.47l9.02-42.69h33.21l-2.19,10.54h-18.96l-1.19,5.44h16.51l-2.25,10.81h-16.51l-1.19,5.37h18.96l-2.19,10.54h-33.21Z"/>
          <path class="cls-14" d="M203.78,182.47l9.02-42.69h23.07c4.07,0,7.21,1.08,9.45,3.25,2.23,2.17,3.35,5.02,3.35,8.55,0,1.19-.13,2.45-.4,3.78-.57,2.87-1.77,5.4-3.58,7.59-1.81,2.19-4.09,3.92-6.83,5.2.4.35.72.79.96,1.29.24.51.43,1.05.56,1.62l2.58,11.4h-14.85l-2.32-9.88c-.13-.62-.35-1.07-.66-1.36-.31-.29-.84-.43-1.59-.43h-2.06l-2.45,11.67h-14.25ZM222.8,159.8h5.24c1.81,0,3.14-.38,3.98-1.13.84-.75,1.41-1.86,1.72-3.31.13-.66.2-1.26.2-1.79,0-.93-.28-1.61-.83-2.05-.55-.44-1.49-.66-2.82-.66h-5.57l-1.92,8.95Z"/>
        </g>
        <text class="cls-16" transform="translate(248.66 182.47)"><tspan x="0" y="0">S</tspan><tspan class="cls-7" x="24.8" y="0">T</tspan><tspan x="49.24" y="0">ORE</tspan></text>
      </g>
    </g>
  </g>
</svg>