<?xml version="1.0" encoding="UTF-8"?>
<svg id="Camada_2" data-name="Camada 2" xmlns="http://www.w3.org/2000/svg" xmlns:xlink="http://www.w3.org/1999/xlink" viewBox="0 0 283.6 191.33">
  <defs>
    <style>
      .cls-1 {
        fill: url(#Degradado_sin_nombre_9-2);
      }

      .cls-2 {
        fill: url(#Degradado_sin_nombre_9-10);
      }

      .cls-3 {
        fill: url(#Degradado_sin_nombre_9-6);
      }

      .cls-4 {
        fill: url(#Degradado_sin_nombre_9-4);
      }

      .cls-5 {
        fill: url(#Degradado_sin_nombre_9-3);
      }

      .cls-6 {
        fill: url(#Degradado_sin_nombre_9);
      }

      .cls-7 {
        fill: url(#Degradado_sin_nombre_9-8);
      }

      .cls-8 {
        fill: url(#Degradado_sin_nombre_9-9);
      }

      .cls-9 {
        fill: #b80c00;
      }

      .cls-10 {
        fill: url(#Degradado_sin_nombre_9-7);
      }

      .cls-11 {
        fill: url(#Degradado_sin_nombre_9-11);
      }

      .cls-12 {
        fill: url(#Degradado_sin_nombre_9-5);
      }
    </style>
    <linearGradient id="Degradado_sin_nombre_9" data-name="Degradado sin nombre 9" x1="103.42" y1="85.4" x2="103.42" y2="149.35" gradientUnits="userSpaceOnUse">
      <stop offset="0" stop-color="#f4f4f4"/>
      <stop offset=".23" stop-color="#dbdbdb"/>
      <stop offset=".72" stop-color="#9e9e9e"/>
      <stop offset="1" stop-color="#797979"/>
    </linearGradient>
    <linearGradient id="Degradado_sin_nombre_9-2" data-name="Degradado sin nombre 9" x1="134.39" y1="85.4" x2="134.39" y2="149.35" xlink:href="#Degradado_sin_nombre_9"/>
    <linearGradient id="Degradado_sin_nombre_9-3" data-name="Degradado sin nombre 9" x1="146.16" y1="85.4" x2="146.16" y2="149.35" xlink:href="#Degradado_sin_nombre_9"/>
    <linearGradient id="Degradado_sin_nombre_9-4" data-name="Degradado sin nombre 9" x1="178.38" y1="85.4" x2="178.38" y2="149.35" xlink:href="#Degradado_sin_nombre_9"/>
    <linearGradient id="Degradado_sin_nombre_9-5" data-name="Degradado sin nombre 9" x1="137.75" y1="85.4" x2="137.75" y2="149.35" xlink:href="#Degradado_sin_nombre_9"/>
    <linearGradient id="Degradado_sin_nombre_9-6" data-name="Degradado sin nombre 9" x1="182.45" y1="85.4" x2="182.45" y2="149.35" xlink:href="#Degradado_sin_nombre_9"/>
    <linearGradient id="Degradado_sin_nombre_9-7" data-name="Degradado sin nombre 9" x1="11.45" y1="85.4" x2="11.45" y2="149.35" xlink:href="#Degradado_sin_nombre_9"/>
    <linearGradient id="Degradado_sin_nombre_9-8" data-name="Degradado sin nombre 9" x1="18.75" y1="85.4" x2="18.75" y2="149.35" xlink:href="#Degradado_sin_nombre_9"/>
    <linearGradient id="Degradado_sin_nombre_9-9" data-name="Degradado sin nombre 9" x1="92.48" y1="85.4" x2="92.48" y2="149.35" xlink:href="#Degradado_sin_nombre_9"/>
    <linearGradient id="Degradado_sin_nombre_9-10" data-name="Degradado sin nombre 9" x1="231.44" y1="85.4" x2="231.44" y2="149.35" xlink:href="#Degradado_sin_nombre_9"/>
    <linearGradient id="Degradado_sin_nombre_9-11" data-name="Degradado sin nombre 9" x1="141.8" y1="212.72" x2="141.8" y2="131.82" xlink:href="#Degradado_sin_nombre_9"/>
  </defs>
  <g id="TEXTS">
    <g>
      <g>
        <path class="cls-6" d="M104.62,98.92c-3.71.11-8.95,6.16-8.95,6.16,8.15.46,15.51-1.37,15.51-1.37-1.54-3.88-2.85-4.9-6.56-4.79Z"/>
        <path class="cls-1" d="M165.46,106.9c.68-.17.68-1.08.68-1.08l-54.74-.67s-.86,2.32-2.17,2.66-6.61.34-6.61.34c0,0-.03.57.54.66.57.09,2.14-.29,2.45,0,.31.29.03,1.17.6,1.25.57.09,51.26-.83,51.26-.83v-1.03s-28.85-.41-29.54-.6c-.68-.2-1.6-.73-1.6-.73,0,0,38.44.19,39.12.02Z"/>
        <path class="cls-5" d="M167.83,88.76c2.29.47,6.93,1.14,7.17,1.47.64.9,1.49,2.17,1.43,2.6-.05.35-.37.53-.67.63-.16-.35-.34-.79-.63-1.22-.6-.9.51-1.28-.6-1.41s-4.11-1.11-4.32-.6c-.21.51-.34,1.33-.81,1.54-.17.08-.67.4-1.23.79-12.6-1.41-35.47-2.88-37.49-2.7-2.51.23-22.98,8.5-22.98,8.5,5.07,1.25,4.33,6.04,4.33,6.04,0,0,.64.01,1.76.03.08-.47.2-1.43-.05-2-.34-.77,40.98-2.71,42.22-2.15,1.05.47.66,3.16-.03,4.27,2.85-.09,4.97-.23,5.94-.42.39-.08.84-.21,1.33-.39.28-1.11.62-3.01.62-3.76,0-.95,6.21-1.06,7.22-.22,6.53-3.84,13.57-8.77,13.57-8.77-2.97-.97-17.78-2.76-17.78-2.76,0,0-.48.22.99.52Z"/>
        <path class="cls-4" d="M181.5,93.77l-9.62,6.59h9.92s3.16-5.69,3.08-6.33c-.09-.64-3.38-.26-3.38-.26Z"/>
        <path class="cls-12" d="M100.06,122.47c-.37,1.12,62.98-2.93,74.6-4.47.11-1.61.5-3.66.78-4.97-3.89.52-36.61,3.64-46.47,4.81-10.09,1.2-28.51,3.42-28.91,4.62Z"/>
        <path class="cls-3" d="M176.3,112.92c-.51,1.33-.64,3.35-.65,4.94.25-.04.44-.08.58-.12,4.73-1.25,12.26-4.16,12.77-4.68.51-.51,0-1.31,0-1.31-1.27.21-9.5.77-12.71,1.17Z"/>
        <path class="cls-10" d="M4.21,129.48c.06-.68,17.85-11.52,18.7-13.29,0,0-22.01,13-22.18,13.8-.17.8-.91,4.28-.68,4.16.23-.11,9.07-4.39,9.29-4.79.23-.4.23-1.94.23-1.94,0,0-5.42,2.74-5.36,2.05Z"/>
        <path class="cls-7" d="M26.07,120.27c-1.25-.23-9.27,4.82-9.72,4.91-.46.09,9.41-5.9,9.52-6.87.11-.97-2.31-.34-2.31-.34-1.01.58-8.87,5.87-10.29,7.21-1.43,1.34-3.02,4.36-3.02,4.36,0,0,9.29-2.79,11.01-3.48,1.71-.68,6-5.52,6-5.72s.07.16-1.18-.07Z"/>
        <path class="cls-8" d="M81.17,105.81c11.71-5.65,38.72-15.28,48.12-18.58,2.08-.73,31.81,1.03,31.81,1.03,0,0,1.66-.41-2.93-.9-8.55-.92-26.27-2.12-28.63-1.55-1.79.44-29.59,9.46-38.55,12.51-6.53,2.22-15.69,5.8-20.18,7.57-10.31.18-21.18.68-26.64,1.95-12.15,2.82-20.61,9.24-20.61,9.24,0,0,7.95-1.74,6.16,3.19,9.81-5.87,20.35-9.6,33.1-6.87,0,0,20.96-4.53,31.56-3.16,0,0,3.25-1.54.86-4.28,0,0-6.02-.15-14.07-.15ZM88.14,108.84c-5.13-.74-23.95,3.08-23.95,3.08-1.05-.99-6.1-1.85-6.1-1.85,6.56-3.05,29.71-2.46,29.71-2.46.78.45.34,1.23.34,1.23Z"/>
        <path class="cls-2" d="M258.01,102.54c-27.2-2.39-51.32,3.25-51.32,3.25,0,0,6.72-3.4,17.74-4.9-1.37-1.34-4.74-2.76-4.74-2.76v-.34c4.88,0,8.8,1.78,10.27,2.55,3.54-.22,7.41-.22,11.54.14l-.6-1.8s-34.04-7.95-53.54-8.47l-.86,1.67s7.01.63,12.7,1.77c0,0-11.2-.53-11.68-.53s-.73,1.11-.73,1.11l-2.18,3.85s1.07-1.08,2.18-1.18c1.11-.1,6.63.71,7.57,1.95.94,1.24-1.37,4.82-4.32,5.68-2.95.86-10.01.39-10.01.39l-.77,2.27s1.07-1.75,1.8-1.75,8.08,1.11,10.56-.68c2.48-1.8,3.98-4.04,3.98-4.04,0,0,1.54.06,1.88,1,.34.94-2.31,4.41-2.31,4.41,0,0,4.66-2.69,5.43-5.09s-9.11-5.77-10.67-5.82c-1.56-.04-2.07-.98-2.07-.98,0,0,11.76.23,14.11,2.77s-.51,6.26-3.16,8.48c-2.65,2.22-8.21,5.26-8.21,5.26,0,0,14.54-1.54,21.64,0,7.1,1.54,15.74,3.93,20.01,4.02,13.36-7.42,27.15-6.1,41.31,2.57,0,0-.77-4.45-3.25-6.59,0,0,7.01-4.36,11.97-3.42l1.28-1.54s1.63-.86-25.57-3.25Z"/>
      </g>
      <g>
        <path class="cls-9" d="M42.88,102.28c3.46-.81,8.8-1.38,16.17-1.74L141.8,17.79l69.24,69.24c8.14,1.29,16.03,2.84,21.84,4.05L141.8,0,38.25,103.55c1.48-.47,3.03-.9,4.63-1.27Z"/>
        <polygon class="cls-11" points="186.11 129.24 203.89 129.24 141.8 191.33 79.71 129.24 97.49 129.24 141.8 173.55 186.11 129.24"/>
      </g>
      <g>
        <path class="cls-9" d="M176.72,81.18l-4.88-3.76c-1.43-1.1-3.38-1.25-4.97-.38l-5.39,2.98,3.76-4.88c1.1-1.43,1.25-3.38.38-4.97l-2.98-5.39,4.88,3.76c1.43,1.1,3.38,1.25,4.97.38l5.39-2.98-3.76,4.88c-1.1,1.43-1.25,3.38-.38,4.97l2.98,5.39Z"/>
        <path class="cls-9" d="M90.57,91.41l1.75-4.06c.51-1.19.27-2.57-.62-3.52l-3.03-3.22,4.06,1.75c1.19.51,2.57.27,3.52-.62l3.22-3.03-1.75,4.06c-.51,1.19-.27,2.57.62,3.52l3.03,3.22-4.06-1.75c-1.19-.51-2.57-.27-3.52.62l-3.22,3.03Z"/>
        <path class="cls-9" d="M101.22,73.76l3.89-2.1c1.14-.62,1.81-1.85,1.69-3.15l-.39-4.4,2.1,3.89c.62,1.14,1.85,1.81,3.15,1.69l4.4-.39-3.89,2.1c-1.14.62-1.81,1.85-1.69,3.15l.39,4.4-2.1-3.89c-.62-1.14-1.85-1.81-3.15-1.69l-4.4.39Z"/>
        <path class="cls-9" d="M156.74,64.59l.8-4.95c.23-1.45-.42-2.91-1.66-3.7l-4.23-2.7,4.95.8c1.45.23,2.91-.42,3.7-1.66l2.7-4.23-.8,4.95c-.23,1.45.42,2.91,1.66,3.7l4.23,2.7-4.95-.8c-1.45-.23-2.91.42-3.7,1.66l-2.7,4.23Z"/>
        <path class="cls-9" d="M158.15,72.33l-3.54,1.28c-1.04.38-1.76,1.33-1.83,2.44l-.23,3.76-1.28-3.54c-.38-1.04-1.33-1.76-2.44-1.83l-3.76-.23,3.54-1.28c1.04-.38,1.76-1.33,1.83-2.44l.23-3.76,1.28,3.54c.38,1.04,1.33,1.76,2.44,1.83l3.76.23Z"/>
      </g>
    </g>
  </g>
</svg>